<svg width="86" height="24" fill="none" xmlns="http://www.w3.org/2000/svg"><path d="M9.9923 21.8531c-.3116.2956-.6058.5839-.9106.8604-.3425.3107-.7098.363-1.112.1432-1.0386-.5676-2.1518-.69-3.3152-.6398-1.2801.0552-2.3289.6305-3.3246 1.354-.367.2666-.731.5173-1.2199.3989-.0307-.0075-.0596-.0223-.11-.0416.0418-.0919.0688-.1798.1172-.2537 1.1794-1.8001 2.648-3.2555 4.7601-3.9157 1.6532-.5167 3.3254-.4919 5.0008-.1042.3654.0846.4459.03.446-.3363.0006-3.3285.0099-6.6571-.0031-9.9856-.0079-2.0164-.0503-4.0327-.0784-6.049-.0019-.1312-.0141-.2622-.0243-.443-.0864.0718-.1404.1055-.18.1515-.6391.7417-1.0289 1.587-1.0581 2.5787-.0268.9069-.0585 1.8137-.0733 2.7208-.0315 1.9408-.0334 3.8823-.0908 5.8222-.0185.6233-.1196 1.2565-.2778 1.8602-.221.8431-.8023 1.4617-1.4784 1.9843-.9982.7716-2.1257 1.2358-3.3827 1.372-.2903.0315-.3437-.0081-.3038-.2966.0245-.1771.0922-.4057.2217-.5015 1.0087-.7462 1.3957-1.7611 1.3744-2.9781-.0124-.7142.001-1.4289-.0033-2.1433-.003-.5075-.3262-.8088-.8327-.7886-.9117.0364-1.2581.2976-1.5686 1.1714a1.923 1.923 0 0 1-.1854.3837c-.1215.1914-.26.198-.4007.0247-.0628-.0772-.1206-.1654-.1541-.2582-.4537-1.2568-.3942-2.4445.5263-3.4882.4758-.5395 1.1037-.8369 1.7954-1.0048.6114-.1485.8705-.472.9054-1.0967.021-.3768.0526-.7548.1105-1.1274.1144-.7366.5392-1.2943 1.0948-1.7556.7814-.6488 1.5891-1.2662 2.361-1.9258.4716-.403.8932-.8639 1.3454-1.2901.1455-.1371.3039-.2718.4795-.3635.367-.1917.6538-.0058.6542.4076.0015 1.6055-.0019 3.2109.0015 4.8163.0022 1.0584.7802 1.9108 1.8508 2.039 1.0009.1197 1.9631-.5522 2.2067-1.5498a2.2963 2.2963 0 0 0 .0655-.5232c.0063-.9414.0026-1.8828.0031-2.8242.0002-.4202-.1516-.7676-.483-1.033-.2831-.2267-.4916-.2258-.7578.0175-.105.096-.1939.2097-.3.3044-.1236.1104-.2478.0689-.2439-.0844.005-.19.0282-.4157.1343-.5586.1825-.2457.4221-.4552.6609-.6519.7584-.6245 1.5324-1.2301 2.2893-1.8565.1984-.1643.3742-.1758.5643-.0285.4639.3597.9275.72 1.3819 1.0916.493.403.7001.4193 1.2282.0598.2757-.1876.6489-.0367.6963.2902.009.062-.0324.144-.0746.1979a1.2387 1.2387 0 0 1-.2331.2292c-.5615.4185-.7492.9833-.7475 1.6702.0116 4.7574.0108 9.5149.0007 14.2723-.0014.6679.2376 1.2014.6979 1.6647.1561.1571.2843.1705.4496.0313.1603-.135.33-.259.4957-.3876.1328-.1031.2578-.1076.3771.0245.1185.1313.042.2403-.0493.3285-.3138.3032-.6256.6097-.9563.8938a154.4413 154.4413 0 0 1-2.3699 1.9969c-.3174.2617-.3589.2574-.662-.009-.6747-.5931-1.3393-1.1978-2.0079-1.7979-.0875-.0786-.173-.1594-.2624-.2358-.1973-.1687-.4086-.1776-.6268-.0441-.0857.0525-.1643.1165-.2496.1697-.1458.091-.2763.0345-.3388-.0953-.0345-.0717-.0116-.2173.0429-.2765.147-.1593.3192-.2973.4915-.4308.5782-.4484.8561-1.036.8534-1.7661-.0045-1.1684.0089-2.3368-.0046-3.505-.01-.8669-.4112-1.5259-1.1961-1.8898-.7941-.3682-1.5604-.2472-2.2307.3233-.4353.3705-.6895.8605-.69 1.4316-.0013 1.7058.0193 3.4117.0492 5.1172.0032.1839.1287.3642.1861.5497.0192.0618.029.1526-.0026.1993a2.6348 2.6348 0 0 1-.3191.3877c-.3333.3319-.6748.6556-1.0258.9951Zm-6.86-10.2813c.2727-.0462.5439-.1054.8182-.1365 1.2283-.1389 2.21.7331 2.2182 1.9665.004.613.0247 1.2273-.0058 1.8388-.0325.6506-.1165 1.2986-.1963 1.9648l.0127.0433c.009-.0122.0181-.0244.0625-.0374.861-.5587 1.4432-1.2988 1.519-2.3608.042-.5864.0925-1.1732.1028-1.7605.0262-1.5037.035-3.0077.0448-4.5117.006-.9114.0011-1.823.0011-2.7733-.3307.2956-.6698.5796-.986.8871-.2692.2617-.3835.606-.416.9753-.0243.276-.0247.5547-.0618.8287-.0346.2559-.0683.5213-.1638.7577-.2895.7166-.8242 1.17-1.5799 1.3481-.598.1409-1.1262.3851-1.4805.9569.0235.005.0471.01.1109.013Zm15.0181-7.9043c.0048-.126-.0223-.264.0201-.3755.1463-.385-.0048-.6052-.3296-.816-.3549-.2304-.6653-.5292-.9972-.7998l-1.0695.8613c.3792.4355.6274.9213.6348 1.4854.0147 1.1173.0002 2.235-.0048 3.3525a1.5954 1.5954 0 0 1-.0299.3005c-.4297 2.1732-2.68 3.3053-4.6736 2.3532-.0551-.0264-.1142-.0444-.1635-.0632v1.9012c.0451-.0179.0686-.0255.0906-.0362 2.3054-1.1234 4.792.4252 4.7926 2.985.0002 1.101-.0064 2.202.0026 3.303.0048.5882-.0761 1.1524-.3416 1.6847-.0272.0544-.0155.172.0251.21.515.4813 1.0385.9534 1.5672 1.4344l1.2466-1.0646c-.6411-.7181-.7803-1.5586-.7772-2.4707.0158-4.7317.0073-9.4636.0073-14.2452ZM7.6421 20.5794c-1.1448-.0009-2.2413.1786-2.5295.4221 1.109-.0188 2.1628.1743 3.156.6574.0491.0239.1435.03.1764 0 .3065-.2791.6041-.5679.9043-.8539a109.7579 109.7579 0 0 0-.0184-.0827c-.5462-.0475-1.0924-.095-1.6888-.1429ZM69.7815 9.619c.6354-.576 1.2625-1.1345 1.8791-1.7043.1787-.1651.3117-.1548.4922-.0001.4837.4147.9864.8071 1.4722 1.2195.1967.167.3725.1903.5822.031.1394-.1059.2869-.2215.4495-.27.132-.0393.3076-.0209.4355.036.1782.079.2029.2439.0582.39-.1352.1366-.2793.2675-.4343.3806-.4919.359-.7266.8356-.7179 1.4452.0361 2.5371.0633 5.0743.1022 7.6114.0073.4775.035.9554.2902 1.3879.3254.5515.4797.5867.9877.1894.1057-.0827.2025-.177.3098-.2575.2056-.1544.4081-.1218.5686.0845.227.2916.2332.3853-.0375.5696-1.0398.708-2.0891 1.4021-3.1306 2.1077-.2214.15-.4385.1498-.6644.0386-.7449-.3664-1.2476-.9465-1.5088-1.734-.0526-.1589-.09-.3228-.1397-.4827-.1119-.3601-.227-.4164-.5396-.198-.4537.3168-.8885.6611-1.3258 1.0009-.6165.4792-1.2312.9611-1.8389 1.4516-.1212.0979-.2007.1055-.3207.0068-1.1663-.9596-2.3387-1.9118-3.5029-2.874-.2463-.2035-.2334-.5234.0137-.7458.3-.2702.4428-.6045.4402-1.0034-.0144-2.1595-.026-4.319-.0496-6.4784-.0034-.3085-.0426-.6216-.1075-.9234-.1297-.6032-.8196-.9494-1.3931-.7162-.1627.0661-.3177.1511-.4786.2219-.3093.1362-.3961.0999-.5512-.2428.3381-.2204.6775-.4479 1.0229-.6659.7519-.4746 1.4965-.962 2.2635-1.4108.6698-.3918.9326-.3434 1.4991.1896.2383.2242.4647.462.6859.7036.4833.5277.6234 1.1889.6362 1.8669.0402 2.142.0642 4.2846.0669 6.427.0011.8591.2619 1.5772.9132 2.1463.2781.243.551.4922.8234.7416.1021.0934.1969.1047.3118.0195.2291-.1699.4728-.3211.694-.5004.4088-.3314.6176-.7775.6202-1.2969.0095-1.9161.0124-3.8324-.001-5.7485-.0046-.6595-.2863-1.2147-.7653-1.6707-.4173-.3972-.4557-.8482-.111-1.3432Zm-3.1066 9.8407c-.3796-.5867-.5647-1.2298-.5631-1.9282.0015-.6468.0044-1.2936-.0005-1.9404-.0103-1.3855-.0288-2.771-.037-4.1566-.005-.8597-.1418-1.6607-.908-2.203-.0606-.0428-.1632-.1039-.2064-.081-.2613.1378-.511.2977-.7756.457.3433.3756.5161.791.5785 1.2478.0511.3736.0953.7512.0993 1.1275.0208 1.9566.0242 3.9134.0415 5.8701.0054.6001-.0071 1.1923-.3391 1.7381l2.3314 1.934.9455-.7489c-.3928-.438-.772-.8607-1.1665-1.3164Zm6.1607-4.0418c-.0119-1.1512-.0301-2.3024-.0331-3.4536-.0015-.5855-.0702-1.1774.1199-1.7517.0132-.04-.0173-.1173-.0529-.147-.3144-.2626-.6345-.5183-.9613-.7828l-1.0399.9554c.7403.7977 1.0128 1.7225.9999 2.7687-.0216 1.7398.0085 3.4803-.0163 5.22-.006.4188-.1431.8355-.2166 1.2537-.0119.0673-.0282.1457-.0059.2052.1317.3501.2524.7071.4196 1.0402.1477.2944.3446.5656.5371.8346.0327.0456.1737.0654.2293.0342.2606-.1461.5088-.3143.7828-.4881-.5823-.6987-.6839-1.5215-.7054-2.3616-.028-1.092-.039-2.1845-.0572-3.3272ZM51.8693 9.5596c1.1608-.6416 2.3079-1.2695 3.45-1.9066.1714-.0956.306-.0883.4591.0249 1.0863.8025 2.1904 1.582 3.2567 2.4102.5278.4099.7749 1.0162.7791 1.6842.0142 2.2609.0085 4.522.013 6.783.0006.2693-.1124.47-.3367.607-1.6463 1.0061-3.2821 2.03-4.9458 3.0066-.8485.4981-1.728.4258-2.5404-.1335-.8916-.6138-1.7701-1.2466-2.648-1.88-.1753-.1264-.3298-.1426-.5024-.0211-.2468.1737-.4936.3475-.7393.5227-.2328.166-.4364.1294-.607-.0972-.1025-.136-.1116-.2585.0102-.3802.1721-.1721.3413-.3477.5221-.5103.5563-.5002.8376-1.1202.8368-1.8686-.0017-1.6727.0017-3.3453-.0055-5.0179-.0043-1.0079.4262-1.7541 1.3015-2.2497.5621-.3182 1.1211-.6417 1.6966-.9735Zm4.3309 3.5012c-.0836-.7164-.4183-1.2906-1.0121-1.6943-.6731-.4576-1.3623-.8918-2.0467-1.3328-.1238-.0798-.2581-.1434-.4249-.235-.0214.2414-.0525.4385-.0543.6359-.0201 2.218-.0453 4.4362-.0475 6.6543-.0008.786.3352 1.4369.9841 1.8888.7643.5323 1.5489 1.0353 2.326 1.5491.0578.0382.1256.0611.2763.1327 0-.7822-.0004-1.4949.0001-2.2075.0012-1.7813.0028-3.5626-.001-5.3912Zm-4.6915 7.1395c.3743.2698.7487.5394 1.1228.8096.5469.3951 1.1294.359 1.6489-.111-.4259-.2878-.8525-.5693-1.272-.861-1.0378-.7215-1.5839-1.719-1.597-2.9811-.0162-1.5541 0-3.1085.0019-4.6627.0005-.382.0001-.764.0001-1.1855-.237.136-.4502.263-.6678.3821-.4548.2491-.6729.6247-.6693 1.1484.0087 1.2518.0121 2.5038-.0003 3.7555-.0086.86.1024 1.7303-.2008 2.5577.5473.3856 1.0749.7574 1.6335 1.148Zm7.0636-8.6612c-.1279-.2018-.2137-.4574-.3909-.5963-.8446-.6619-1.7133-1.2931-2.5769-1.9306-.0506-.0373-.1485-.067-.1961-.0433-.3017.1499-.5954.3158-.9137.4884.4611.306.8918.5821 1.3126.8728 1.0384.7176 1.5955 1.7079 1.6047 2.9738.0121 1.6461-.0036 3.2924-.0072 4.9386-.0005.2535-.0001.5071-.0001.7892.3663-.2221.6913-.4281 1.0256-.6177.1507-.0855.1942-.192.1936-.3614-.0074-2.041-.0065-4.082-.0097-6.123-.0002-.1168-.0176-.2336-.0419-.3905Zm-23.8961 6.1153c.0285.0423.0472.0705.0623.1004.2242.4469.2164.5054-.1663.8161-1.7999 1.4612-3.6044 2.9167-5.3993 4.3841-.1976.1616-.3479.1726-.5489.0304-.9176-.6494-1.8411-1.2906-2.7608-1.9371-.4394-.3088-.8783-.6186-1.3104-.9374-.1377-.1017-.246-.1044-.3797.0008-.2373.187-.4833.3631-.7267.5423-.3721.274-.4693.2617-.7699-.0972-.037-.0441-.0667-.0944-.1205-.1715.2111-.1833.408-.3775.6279-.5408.5734-.4257.8151-.9972.8128-1.6992-.0058-1.7569.0057-3.5139-.0048-5.2708-.0065-1.0774.4693-1.837 1.4231-2.3237 1.6881-.8614 3.3703-1.7343 5.0564-2.5998.2147-.1102.4375-.2045.6707-.3128.4305.6448.8582 1.2664 1.2658 1.901.494.769.9716 1.5487 1.4544 2.325.0485.0778.0804.1658.1268.245.0863.1473.0401.2328-.101.3213-.8815.5529-1.7551 1.1184-2.6359 1.6724-1.0156.6388-2.0329 1.275-3.0555 1.9024-.5373.3296-.6728.8359-.518 1.4678.0254.1034.1101.2137.1988.2768.7042.5013 1.4012 1.0152 2.1296 1.4794.7794.4966 1.8585.4079 2.6058-.1604.6015-.4575 1.199-.9203 1.8042-1.3728.0618-.0462.1642-.038.2591-.0417Zm-9.4912-3.4975c0 1.353.0022 2.706-.0023 4.0589-.0007.2174-.0433.4347-.042.6519.0006.0881.0417.2095.1071.2583.5447.406 1.0994.7985 1.6511 1.1951l1.9158 1.3769 1.3284-1.0738c-.276-.1324-.5592-.23-.8001-.391-.7394-.4943-1.4634-1.0114-2.1915-1.5225-.4427-.3107-.6788-.7571-.7026-1.2799-.0183-.4039.0624-.8124.0993-1.2189.0066-.0724.0287-.1466.0194-.2168-.0406-.3057-.1227-.6094-.1305-.9154-.0271-1.0664-.0297-2.1336-.0411-3.2004-.0016-.1494-.0002-.2987-.0002-.4758-.1737.0856-.3218.1596-.4707.2319-.5161.2507-.7517.6665-.7415 1.2357.0073.4117.0014.8236.0014 1.2858Zm3.7345-3.3456c-.1557-.2084-.3073-.4201-.4683-.6243-.2227-.2824-.3855-.3157-.6385-.073-.105.1006-.1634.2956-.1667.4492a194.739 194.739 0 0 0-.0393 3.5274c-.0014.4657.0283.9315.0454 1.4411.1199-.053.1976-.0778.2656-.1188.869-.5237 1.7342-1.0537 2.6062-1.5721.2027-.1206.2406-.234.1053-.4365-.5684-.8508-1.1261-1.7088-1.7097-2.593Zm1.2597-.3017 1.3459 2.0075.984-.6264-1.7824-2.7265-1.1049.5619c.189.2649.3632.5091.5574.7835Zm11.8942 9.2668c.8243.6217.5581.5774 1.3776.0942.1805-.1064.3509-.2301.526-.3459.372-.246.5418-.2126.7858.1566.0364.055.0667.114.1146.1967-.2908.2211-.5725.443-.8622.6541-1.072.781-2.1516 1.5516-3.2162 2.3425-.2361.1754-.4001.1743-.6272-.0088-.7969-.6425-1.607-1.2689-2.4153-1.8971-.4806-.3735-.6955-.3744-1.1926-.0294-.0688.0476-.1396.0945-.2152.1297-.1793.0834-.3041-.0076-.413-.1407-.1117-.1366-.0545-.2627.0498-.3551.2004-.1778.4049-.3558.6286-.5016.7159-.4666 1.0479-1.1161 1.0421-1.971-.0129-1.8994-.0184-3.7992.0023-5.6985.0094-.8686-.3672-1.5317-.967-2.102-.0515-.0489-.19-.0617-.2572-.0286-.2325.1145-.4511.2572-.6756.3881-.2505.146-.6073-.0191-.6381-.3052-.0058-.0545.0535-.1376.106-.1734.9224-.629 1.8402-1.265 2.7764-1.8728.6081-.3947 1.4111-.2867 1.9221.2299.3661.37.7256.7482 1.0645 1.143.152.177.269.1727.4087.024.3679-.3915.728-.7905 1.0967-1.1813.2478-.2625.5079-.5134.7567-.775.1096-.115.2206-.1353.3561-.055.1585.094.3229.1784.4782.2771.6169.3921 1.2196.3714 1.8475.0012.2738-.1614.5919-.2742.9043-.3357.292-.0576.4048.0768.3362.3609-.1629.675-.3078 1.36-.5433 2.0108-.3018.834-1.3656 1.8256-2.5287 1.6984-.6467-.0707-1.2354-.2953-1.7784-.6483-.2375-.1544-.4757-.308-.7837-.5074 0 .4023.001.7407-.0001 1.0791-.0074 2.3028-.0165 4.6055-.0218 6.9083-.0012.4863.1762.8996.5554 1.2382ZM37.9751 9.7708c.0232.0797.0253.1762.073.2366.5409.6839.8072 1.4539.8028 2.3302-.0101 1.9836-.0046 3.9673-.0022 5.9509.0007.5051-.1146.9798-.3383 1.4305-.0365.0736-.07.1487-.1054.2242l2.1098 1.656 1.0007-.722c-.0368-.0316-.0593-.0523-.0832-.0711-.7835-.6158-1.1266-1.428-1.1184-2.4172.0205-2.4707.0275-4.9414.0352-7.4121.0003-.1-.0167-.2268-.0772-.2957-.3659-.4164-.7444-.8218-1.1237-1.226-.2002-.2135-.3566-.2305-.6014-.074-.1837.1176-.3618.2441-.5717.3897Zm5.172.3819c.2958.1111.5836.2583.8891.3259.6118.1352 1.3683-.4024 1.5113-1.0658-.6904.1348-1.332.004-1.9422-.3324l-.7739.8728c.1139.0741.1978.1288.3157.1995Zm34.6452 9.3916c.5033-.4435.7337-.9905.7339-1.6383.0007-2.0259-.0126-4.0519.0073-6.0776.0068-.6984-.2881-1.1676-.8879-1.4774-.0373-.0192-.0762-.0352-.1127-.0557-.3218-.1809-.3362-.4432-.0481-.6748.7981-.6418 1.6092-1.269 2.3836-1.9383.8407-.7266 1.5789-1.5546 2.237-2.4528.06-.082.1753-.1235.265-.1837.0453.0988.1256.1962.1298.2967.0186.4449.0171.8906.0197 1.336.0059.9932.7242 1.7086 1.7215 1.711.5292.0012 1.0584.0002 1.6381.0002-.068.1533-.119.2884-.1857.4152-.3074.5841-.7099 1.0656-1.3949 1.2105-.1787.0378-.3665.0417-.5504.0443-.7566.0111-1.2279.4787-1.228 1.2295-.0006 2.3117.0025 4.6234-.0018 6.9351-.0014.719.2464 1.327.7587 1.829.126.1234.2516.2474.3805.3678.2732.2553.5437.2873.8736.1061.0441-.0242.0851-.0542.1295-.0778.288-.1537.3328-.1445.5458.1217.0559.0699.1038.1463.1707.2415-.2672.1436-.5086.2756-.7521.4035-.6382.3355-1.2698.6848-1.918.9999-.936.4551-1.8244.35-2.6313-.3118-.4737-.3885-.9299-.7985-1.3962-1.1962-.3633-.3097-.7483-.3437-1.1632-.1093-.0365.0206-.0732.0409-.1096.0616-.4877.2772-.5374.2617-.8136-.2873.3914-.2696.7884-.543 1.1988-.8286Zm1.9261-1.3822-.3715 1.5322c.4166.3594.8899.7607 1.3553 1.1709.5955.5248 1.1042.5575 1.7756.0962-.0339-.0379-.0656-.0762-.1002-.1117-.7148-.7332-1.0624-1.6118-1.0609-2.6356.0033-2.319-.0056-4.6381.0087-6.9571.0019-.3113.0743-.6337.1751-.9302.1848-.5435.5852-.9217 1.0136-1.1716L81.4754 7.859l-2.3831 2.1002c.4692.5293.6511 1.1577.6401 1.8551-.0074.4621-.0007.9243-.0015 1.3864-.0028 1.6384-.006 3.2768-.0125 4.9613ZM10.8581.3197C9.8234 1.5062 8.7914 2.672 7.2599 3.2067c-.714.2493-1.454.223-2.1934.1547-.8863-.0818-1.772-.1836-2.6607-.0265-.5468.0967-1.015.3366-1.3863.755-.039.044-.0782.0878-.1175.1316-.1438.16-.3087.1867-.4963.0803-.19-.108-.1509-.2919-.0856-.422.2846-.5671.5527-1.1492.903-1.6752C1.786 1.359 2.6173.8194 3.5625.4992 3.9614.364 4.422.3772 4.854.3807c1.125.009 2.2496.059 3.3746.0746C8.9113.4648 9.585.3995 10.2107.079c.1139-.0583.2609-.0884.3874-.0764.1558.015.3253.071.26.317ZM3.2778 1.9398l-.117.0896c.6182.0382 1.2163.081 1.815.1102.4595.0223.9208.0533 1.3792.033.47-.021.8988-.1982 1.3313-.4991-.994-.034-1.9318-.0502-2.8674-.1043-.5467-.0316-1.0482.057-1.5411.3706Z" fill="#353535"/></svg>