<svg width="156" height="28" viewBox="0 0 156 28" fill="#3D3D3D" xmlns="http://www.w3.org/2000/svg">
<path d="M57.1009 27.9149C57.1009 27.6616 58.2924 26.1188 59.0568 25.3827C60.1364 24.3429 61.1925 23.697 62.6063 23.2115C64.3033 22.6288 66.7057 22.587 68.6465 23.1065C68.8149 23.1516 68.9807 23.026 68.9807 22.8532V13.5757C68.9807 7.92719 68.9252 3.95542 68.8459 3.95542C68.7722 3.95542 68.5033 4.26583 68.249 4.6452C67.3946 5.91822 67.3473 6.29212 67.3444 11.7892C67.3408 17.2094 67.2389 18.4086 66.6916 19.4649C65.894 21.004 63.7906 22.3363 61.6614 22.6516C60.9656 22.7546 60.9617 22.7528 60.9634 22.3353C60.965 22.0203 61.091 21.8353 61.4682 21.5941C61.7829 21.3929 62.1294 20.9538 62.3945 20.4211C62.805 19.5962 62.8181 19.4992 62.8181 17.2972V15.9077C62.8181 15.4265 62.4127 15.0424 61.9271 15.0636C60.8097 15.1124 60.3648 15.4129 60.0708 16.3176C59.9252 16.7647 59.7633 17.0027 59.6044 17.0033C59.2483 17.0044 58.8828 15.9717 58.8828 14.9652C58.8828 13.203 60.0779 11.8356 61.964 11.4405C62.4907 11.3302 62.8765 10.8826 62.9039 10.3502L62.9225 9.98688C63.0214 8.06042 63.3846 7.51907 65.7135 5.82866C66.3261 5.38404 67.3195 4.51676 67.9214 3.90141C68.7872 3.01566 69.1044 2.78253 69.4435 2.78253C69.6798 2.78253 69.8717 2.97235 69.8717 3.20651V6.961V8.78715C69.8717 10.0863 70.9353 11.1395 72.2476 11.1395C73.5599 11.1395 74.6235 10.0863 74.6235 8.78715V8.01471V5.47927C74.6235 5.1029 74.4681 4.74287 74.193 4.48287C73.7391 4.05336 73.4359 4.08487 72.9969 4.60717C72.7087 4.94965 72.5446 4.88297 72.5446 4.42374C72.5446 4.07569 72.8109 3.79921 74.2756 2.62774C75.2276 1.86617 76.1251 1.16025 76.2696 1.05899C76.4984 0.898699 76.6978 1.00946 77.811 1.91526L78.5715 2.53406C78.875 2.78114 79.3103 2.78926 79.623 2.55367L79.8012 2.41968C79.9977 2.27164 80.2783 2.30929 80.4281 2.50378C80.699 2.85562 80.6987 2.85617 80.0371 3.41704C79.6171 3.77323 79.3753 4.29344 79.3753 4.841V13.1457V21.5841C79.3753 22.0562 79.5368 22.5144 79.8335 22.8841C80.0854 23.1981 80.3475 23.455 80.416 23.455C80.4846 23.455 80.7506 23.2804 81.0077 23.067C81.4255 22.7198 81.4983 22.7025 81.7003 22.9019C81.9023 23.1015 81.7176 23.3002 79.9445 24.7927C77.204 27.099 77.5147 26.9037 77.0895 26.5854C76.8897 26.4361 76.128 25.7701 75.3966 25.1054L74.443 24.2387C74.226 24.0415 73.897 24.029 73.6653 24.2089C73.3131 24.4822 73.2368 24.4944 73.0468 24.3071C72.8572 24.1198 72.9414 24.0072 73.727 23.3979C74.2929 22.9589 74.6235 22.2866 74.6235 21.5749V18.9003V17.4504C74.6235 16.1513 73.5599 15.0981 72.2476 15.0981C70.9353 15.0981 69.8717 16.1513 69.8717 17.4504V19.3425C69.8717 23.2296 69.8932 23.5997 70.1315 23.7379C70.3563 23.8686 70.1625 24.1028 68.686 25.4822L67.5281 26.5641C67.2008 26.8698 66.7132 26.9352 66.3157 26.7265C65.147 26.1129 64.1633 25.9088 62.6852 25.9729C61.5443 26.0224 61.1719 26.106 60.3018 26.5082C59.7349 26.7703 58.9886 27.2132 58.6433 27.4925C58.2291 27.8276 57.8607 28 57.5585 28C57.3068 28 57.1009 27.9617 57.1009 27.9149ZM0.137062 27.4502C1.14793 25.5577 3.758 23.3391 6.06491 22.4114C7.02728 22.0244 7.28373 21.8332 8.16693 20.8435C9.86961 18.9357 9.875 18.9152 9.87983 14.4383C9.88475 9.797 10.0179 8.37093 10.5568 7.18535C10.7768 6.70141 11.0484 6.23046 11.1602 6.13877C11.5102 5.85207 11.3853 5.71477 10.7745 5.71477C10.236 5.71477 10.1356 5.78099 9.60813 6.48451C9.29075 6.90783 8.97414 7.38617 8.90456 7.54743C8.83498 7.70873 8.74168 10.0178 8.69723 12.6789L8.62625 16.93C8.61975 17.3169 8.52964 17.6981 8.36196 18.0476L8.13302 18.5249C7.45621 19.9359 6.12055 21.2041 4.50168 21.9729C2.78118 22.79 2.50296 22.8423 2.29321 22.3878C2.13962 22.055 2.18348 21.9706 2.80374 21.4061C3.77461 20.5226 4.10228 19.5838 4.19953 17.4071L4.24588 16.3703C4.26259 15.9966 3.96103 15.6845 3.58314 15.6845C2.80934 15.6845 2.0418 15.9507 1.72378 16.3292C1.60814 16.4669 1.47348 16.8228 1.42452 17.12C1.30554 17.8428 0.922133 17.9101 0.571981 17.2697C0.385369 16.9283 0.305594 16.4573 0.303522 15.6845C0.300996 14.7377 0.359136 14.4866 0.721954 13.8771C1.23755 13.011 2.20173 12.3753 3.35671 12.1398C3.8546 12.0382 4.22176 11.6186 4.25214 11.1161L4.26784 10.8571C4.38285 8.95694 4.73542 8.51649 7.57608 6.7244C8.02369 6.44199 7.83156 5.75644 7.301 5.7428L6.21281 5.71477C3.63744 5.64848 3.32544 5.61257 2.94674 5.33879C2.17647 4.78194 1.93404 4.06472 1.93404 2.34267C1.93404 0.452669 2.04322 -0.004281 2.49374 3.01216e-05C2.71953 0.00224664 2.89596 0.152792 3.04777 0.47294C3.17029 0.731292 3.50442 1.07624 3.79028 1.23949C4.28491 1.52197 4.63248 1.54011 10.9924 1.61539C17.1981 1.68886 17.7384 1.71577 18.5657 1.99259C21.2933 2.90518 23.2752 5.26449 24.1517 8.64253C25.1347 12.431 24.6318 17.3252 22.8313 21.4906L22.7987 21.566C22.5577 22.1235 22.1348 22.585 21.5974 22.8764L18.0922 24.7776L14.5049 26.7234C14.0429 26.974 13.4807 26.9603 13.0316 26.6875C9.59181 24.5978 4.87474 24.8406 1.60844 27.2754C1.0973 27.6564 0.677771 27.8534 0.377383 27.8534C-0.0729315 27.8534 -0.0757607 27.8484 0.137062 27.4502ZM18.6248 22.4523C18.888 21.6589 19.2656 20.2239 19.464 19.2634C19.8156 17.5606 20.1166 14.3649 19.9255 14.3649C19.8728 14.3649 18.4595 15.0405 16.7848 15.8661L15.2566 16.6194C14.3272 17.0776 13.7396 18.017 13.7396 19.045V19.6548V21.2907C13.7396 21.6772 13.9965 22.0176 14.3707 22.1271C15.1037 22.3415 16.9111 23.2121 17.4515 23.611C17.656 23.762 17.8959 23.8876 17.9848 23.8902C18.0736 23.893 18.3617 23.2457 18.6248 22.4523ZM12.7002 13.8152C12.7001 9.40907 12.643 6.00799 12.5692 6.00799C12.3689 6.00799 11.6798 6.95758 11.3173 7.73314C11.0096 8.39163 10.9891 8.68202 10.9169 13.412C10.8406 18.3961 10.8405 18.3969 10.4564 19.2031C10.245 19.6467 9.79471 20.354 9.45562 20.775C9.1166 21.1959 8.83929 21.5588 8.83946 21.5814C8.83962 21.6039 9.70832 21.6222 10.77 21.6222C11.836 21.6222 12.7002 20.7666 12.7002 19.7112V13.8152ZM16.9323 14.7476L19.0719 13.6538C19.5794 13.3945 19.8914 12.8699 19.8745 12.3048C19.8194 10.4648 20.0801 10.4745 16.7046 12.1864L14.8996 13.1018C14.1875 13.463 13.7396 14.1884 13.7396 14.9806C13.7396 15.6903 13.7897 16.2698 13.851 16.2684C13.9123 16.2667 15.2989 15.5826 16.9323 14.7476ZM19.2976 9.48523C18.8954 8.20009 17.6664 6.78525 16.4651 6.22417C16.0014 6.0076 15.2581 5.81238 14.7016 5.76107C14.1853 5.71347 13.7396 6.11562 13.7396 6.62893V9.13975V9.47566C13.7396 10.9149 15.2688 11.8513 16.5695 11.2086C19.1773 9.91985 19.3914 9.78473 19.2976 9.48523ZM41.1318 25.2815C39.7545 24.2769 38.5852 23.455 38.5333 23.455C38.4814 23.455 38.1263 23.6954 37.7445 23.9892C37.0699 24.5078 37.0412 24.5157 36.755 24.2597C36.5924 24.1146 36.4596 23.9559 36.4596 23.9068C36.4596 23.8578 36.8271 23.5343 37.2765 23.1878C37.7918 22.7905 38.093 22.18 38.093 21.5332V18.0566V15.2016C38.093 14.1899 38.6622 13.2625 39.5692 12.7966L42.1859 11.452C44.4368 10.2953 46.3046 9.37466 46.3362 9.40611C46.3682 9.43763 47.1632 10.6154 48.1025 12.0235C49.2014 13.67 49.7598 14.6341 49.6674 14.7252C49.5884 14.803 47.9044 15.8625 45.9247 17.0794L42.8641 18.9607C42.5257 19.1688 42.308 19.5248 42.2793 19.9182C42.2522 20.282 42.3142 20.6409 42.4264 20.7747C42.5328 20.9014 43.4953 21.5833 44.5651 22.2902L44.8604 22.4854C45.8447 23.1357 47.1394 23.0863 48.0699 22.3628L48.3992 22.1069C49.438 21.2992 50.3084 20.6618 50.3332 20.6905C50.5466 20.9373 50.7186 21.4564 50.6178 21.5493C50.3701 21.7778 43.9551 26.9137 43.7975 27.0096C43.7087 27.0638 42.509 26.286 41.1318 25.2815ZM45.8676 16.2652C46.004 16.1439 43.1768 12.0192 42.9571 12.0192C42.8847 12.0192 42.6964 12.0874 42.5384 12.171C42.2688 12.3133 42.2512 12.5065 42.2512 15.2986C42.2512 16.9354 42.2891 18.3122 42.3357 18.3581C42.4072 18.4287 45.4877 16.6032 45.8676 16.2652ZM87.7601 25.2815C86.3829 24.2769 85.2132 23.455 85.1616 23.455C85.1094 23.455 84.7547 23.6954 84.3725 23.9892C83.6982 24.5078 83.6695 24.5157 83.383 24.2597C83.2208 24.1146 83.088 23.9559 83.088 23.9068C83.088 23.8578 83.4554 23.5343 83.9045 23.1878C84.4202 22.7905 84.7214 22.1799 84.7214 21.5332V18.0566V15.2016C84.7214 14.1899 85.2906 13.2625 86.1975 12.7965L88.8139 11.452C91.0648 10.2953 92.9323 9.37466 92.9642 9.40611C92.9959 9.43763 93.7916 10.6154 94.7302 12.0235C95.8297 13.67 96.3881 14.6341 96.2957 14.7252C96.2164 14.803 94.5324 15.8625 92.5527 17.0794L89.4921 18.9607C89.1537 19.1688 88.9363 19.5247 88.9073 19.9182C88.8805 20.282 88.9422 20.6409 89.0548 20.7747C89.1612 20.9014 90.1236 21.5833 91.1931 22.2902L91.4891 22.4854C92.4724 23.1358 93.7677 23.0863 94.6985 22.3629L95.0278 22.1069C96.0669 21.2992 96.937 20.6618 96.9618 20.6905C97.1743 20.9373 97.3466 21.4564 97.2464 21.5493C96.999 21.7778 90.5831 26.9137 90.4255 27.0096C90.3367 27.0638 89.1374 26.286 87.7601 25.2815ZM92.4963 16.2652C92.632 16.1439 89.8048 12.0192 89.5851 12.0192C89.513 12.0192 89.3244 12.0874 89.1664 12.171C88.8972 12.3133 88.8792 12.5065 88.8792 15.2986C88.8792 16.9354 88.9174 18.3122 88.9637 18.3581C89.0352 18.4287 92.1157 16.6032 92.4963 16.2652ZM30.7426 26.2864C30.3342 25.9258 29.5853 25.2677 29.0784 24.8238L28.6522 24.4507C28.3642 24.1984 27.9362 24.1828 27.6301 24.4133C27.1981 24.7386 27.0637 24.7771 26.8812 24.6276C26.5084 24.3221 26.6305 24.1425 27.7047 23.4158C28.3511 22.9785 28.7377 22.2533 28.7377 21.4782V18.2342V14.6529C28.7377 14.0684 28.5419 13.5005 28.1809 13.0381C27.8747 12.6458 27.5726 12.3221 27.5097 12.3186C27.4469 12.3153 27.1366 12.4737 26.8202 12.6709C26.251 13.0256 26.2419 13.0264 25.9825 12.7434C25.8383 12.586 25.7476 12.4314 25.7813 12.3997C26.1767 12.0266 30.2984 9.40891 30.3963 9.46869C30.4691 9.51313 31.0946 10.2166 31.7864 11.0319L32.403 11.7586C32.8171 12.2468 33.0443 12.8639 33.0443 13.5015V17.6617V22.0355C33.0443 22.5301 33.246 23.0035 33.604 23.3486C33.9307 23.6635 34.4349 23.7105 34.8151 23.4614L34.8291 23.4522C35.6143 22.9379 35.6408 22.9345 36.098 23.2895C36.2733 23.4259 36.2658 23.6915 36.0823 23.8176L34.1167 25.1708C32.8328 26.0546 31.7152 26.8148 31.6335 26.8599C31.5519 26.905 31.1509 26.647 30.7426 26.2864ZM102.839 26.3048C102.388 25.9435 101.539 25.2812 100.95 24.8332L100.403 24.417C100.094 24.1817 99.6638 24.1805 99.3527 24.4141C98.9223 24.7388 98.7881 24.7771 98.6057 24.6276C98.2327 24.3221 98.3538 24.1425 99.4294 23.4158C100.075 22.9785 100.462 22.2534 100.462 21.4782V18.2342V14.6532C100.462 14.0686 100.266 13.5005 99.9046 13.0381C99.5992 12.6458 99.2973 12.3221 99.2343 12.3186C99.1713 12.3153 98.8612 12.4737 98.5447 12.6709C97.97 13.0291 97.969 13.0291 97.6997 12.7353C97.53 12.5513 97.4853 12.4033 97.5813 12.3401C97.6632 12.2845 98.7023 11.5914 99.8883 10.7997L100.769 10.2114C101.508 9.7187 102.497 9.81996 103.117 10.4518C103.707 11.0522 104.274 11.6573 104.378 11.7966C104.544 12.0234 104.688 11.9115 105.744 10.7268C106.391 9.99906 107.002 9.39833 107.101 9.39182C107.199 9.3854 107.526 9.545 107.826 9.7466C108.168 9.97523 108.582 10.1132 108.926 10.1132C109.27 10.1132 109.685 9.97523 110.026 9.7466C110.679 9.30928 111.452 9.24947 111.449 9.63669C111.444 10.1366 111.003 11.743 110.718 12.2942C110.339 13.0285 109.522 13.7222 108.78 13.9418C107.965 14.1831 106.779 13.9106 105.792 13.2546C105.376 12.9783 105.009 12.7522 104.976 12.7522C104.943 12.7522 104.917 14.9875 104.917 17.7194V21.8476C104.917 22.3786 105.158 22.8815 105.573 23.2174C105.933 23.5094 106.284 23.748 106.353 23.7477C106.42 23.7474 106.877 23.4841 107.367 23.1623L107.908 22.8071C108.105 22.6776 108.371 22.7208 108.515 22.9062C108.656 23.0871 108.772 23.2681 108.772 23.3084C108.773 23.3776 103.931 26.8657 103.743 26.931C103.694 26.9479 103.288 26.6662 102.839 26.3048ZM131.763 25.0159L129.94 23.5102C129.674 23.2914 129.676 22.8877 129.943 22.671C130.269 22.4069 130.459 22.0116 130.459 21.5942V17.803C130.459 13.0089 130.422 12.7459 129.694 12.3747C129.161 12.1026 128.996 12.1107 128.341 12.4414C127.873 12.6762 127.767 12.6865 127.62 12.5112C127.524 12.3979 127.472 12.2842 127.504 12.2583C127.537 12.2325 128.522 11.602 129.695 10.8572C132.169 9.28653 132.166 9.28688 133.359 10.465C134.569 11.6598 134.617 11.9185 134.617 17.2998V20.642C134.617 21.3782 134.919 22.0828 135.455 22.5936L135.641 22.7712C136.205 23.3085 136.717 23.7482 136.779 23.7482C136.84 23.7482 137.248 23.4822 137.684 23.157C138.184 22.7848 138.478 22.2017 138.478 21.5827V18.2594V15.1501C138.478 14.3891 138.147 13.6649 137.57 13.1622C137.085 12.7393 137.076 11.9935 137.551 11.5594L138.219 10.949C139.074 10.1667 139.833 9.52785 139.906 9.52921C139.978 9.53094 140.491 9.92655 141.048 10.409C141.603 10.8914 142.128 11.2861 142.212 11.2861C142.297 11.2861 142.569 11.1434 142.817 10.9691C143.145 10.7385 143.332 10.6914 143.5 10.7963C143.922 11.0594 143.844 11.2465 143.076 11.8026C142.599 12.1486 142.319 12.7007 142.324 13.2862L142.364 17.6478C142.41 22.6892 142.427 22.9698 142.724 23.5283C142.895 23.8509 143.139 24.1349 143.266 24.1594C143.393 24.184 143.745 23.9887 144.05 23.7254L144.262 23.541C144.448 23.3804 144.73 23.4039 144.886 23.5931C145.042 23.7834 145.15 23.9951 145.127 24.0633C145.051 24.2917 141.228 26.8228 140.957 26.8249C140.183 26.8311 139.039 25.7423 138.766 24.7402C138.424 23.488 138.592 23.4547 136.324 25.2264C135.181 26.1198 134.211 26.8715 134.17 26.8971C134.131 26.9226 133.046 26.076 131.763 25.0159ZM116.175 25.1909C114.925 24.2996 113.816 23.5368 113.711 23.4957C113.608 23.4546 113.209 23.6622 112.826 23.957L112.469 24.2313C112.282 24.376 112.011 24.3428 111.865 24.1573C111.602 23.8238 111.607 23.8162 112.494 23.0152C113.063 22.5015 113.388 21.774 113.388 21.0113L113.385 17.8744L113.383 15.1132C113.382 14.1405 113.908 13.2419 114.761 12.759L117.12 11.4234C119.177 10.2593 120.954 9.30684 121.07 9.30684C121.185 9.30684 122.338 10.0985 123.632 11.0662L124.9 12.0142C125.585 12.5253 125.987 13.3238 125.989 14.1722L125.995 17.537L126.002 21.842C126.003 22.0955 125.874 22.3321 125.66 22.4708C125.471 22.5931 123.771 23.6198 121.883 24.7522L119.998 25.8829C119.059 26.4458 117.871 26.3993 116.981 25.7648L116.175 25.1909ZM121.845 19.2994V15.8635C121.845 14.9561 121.387 14.1088 120.624 13.6066L119.917 13.1416C118.855 12.4436 117.919 11.8726 117.837 11.8726C117.74 11.8726 117.688 13.5618 117.688 16.7081V20.1026C117.688 21.0035 118.14 21.8455 118.895 22.3492L119.655 22.857C120.737 23.5793 121.673 24.1743 121.734 24.1792C121.795 24.1842 121.845 21.9881 121.845 19.2994ZM148.906 25.269L147.686 24.2287C147.33 23.9245 146.817 23.8782 146.411 24.1135C145.759 24.4907 145.723 24.4957 145.524 24.2374C145.411 24.0893 145.319 23.9351 145.321 23.8948C145.323 23.8545 145.822 23.5099 146.43 23.129C147.119 22.698 147.536 21.9475 147.536 21.1407V17.8763V13.9236C147.536 13.5347 147.38 13.1619 147.101 12.8876C146.874 12.6622 146.531 12.4855 146.461 12.4507C146.453 12.4465 146.429 12.4357 146.42 12.4318C146.095 12.2877 146.001 11.9994 146.231 11.7296C147.776 10.6296 150.185 8.76296 151.806 6.44785C152.135 6.44785 152.139 6.22225 152.139 8.35383C152.139 9.40647 153.007 10.2598 154.07 10.2598C155.414 10.2598 156 10.2357 156 10.2598C156 10.3515 155.715 10.9441 155.369 11.3727C154.97 11.8656 154.367 12.1539 153.729 12.1572L153.438 12.1588C152.719 12.1626 152.139 12.7406 152.139 13.4522V17.4117V21.5247C152.139 22.2497 152.432 22.9444 152.954 23.4536L153.019 23.5173L153.47 23.9583C153.723 24.205 154.112 24.2526 154.417 24.0744C154.929 23.7763 154.94 23.776 155.196 24.0542C155.337 24.2094 155.426 24.362 155.393 24.3931C155.359 24.4243 154.294 24.9826 153.027 25.6338L152.365 25.9734C151.373 26.4834 150.166 26.3439 149.318 25.6212L148.906 25.269ZM29.1408 6.44234C28.4232 5.63702 27.8039 4.89508 27.7643 4.79367C27.7052 4.64133 30.1284 2.38599 30.7494 2.01545C30.8649 1.94656 31.4461 2.48777 32.3734 3.52751C33.1676 4.41817 33.7939 5.16639 33.7649 5.19029C33.7361 5.21415 33.0182 5.83673 32.1692 6.57381C31.3204 7.3109 30.5854 7.91231 30.5358 7.91029C30.4862 7.90808 29.8584 7.2477 29.1408 6.44234ZM57.5836 5.61768C57.2983 5.50412 57.3574 5.19882 57.8519 4.23217C58.485 2.99352 59.3391 2.1346 60.496 1.57294C61.465 1.10268 61.4999 1.09729 63.1872 1.16034C66.9178 1.29974 67.8176 1.26006 68.5617 0.923378C69.1504 0.656994 69.2973 0.638498 69.5241 0.802154C69.7692 0.979287 69.6811 1.10398 68.4579 2.30931C66.4779 4.26043 65.1907 4.7742 62.8922 4.53115C60.2434 4.25105 59.1243 4.44546 58.2999 5.32892C57.9276 5.72792 57.8943 5.74147 57.5836 5.61768Z"/>
</svg>
