<svg width="128" height="128" viewBox="0 0 128 128" fill="none" xmlns="http://www.w3.org/2000/svg">
<path d="M0 0H128V128H0V0Z" fill="#1647A0"/>
<path d="M13.4524 60.877C14.4875 58.9391 17.1602 56.6672 19.5225 55.7173C20.5079 55.321 20.7706 55.1252 21.6749 54.1117C23.4185 52.1582 23.424 52.1372 23.429 47.5528C23.434 42.8001 23.5703 41.3398 24.1222 40.1258C24.3475 39.6302 24.6256 39.148 24.7401 39.0541C25.0985 38.7605 24.9706 38.6199 24.3451 38.6199C23.7937 38.6199 23.6909 38.6877 23.1507 39.4081C22.8257 39.8416 22.5015 40.3314 22.4303 40.4966C22.359 40.6617 22.2635 43.0262 22.218 45.7512L22.1453 50.1043C22.1386 50.5005 22.0464 50.8909 21.8747 51.2487L21.6402 51.7375C20.9472 53.1824 19.5795 54.481 17.9217 55.2683C16.1599 56.105 15.875 56.1585 15.6603 55.6931C15.503 55.3523 15.5479 55.2659 16.183 54.6879C17.1772 53.7831 17.5127 52.8218 17.6123 50.5929L17.6598 49.5312C17.6769 49.1485 17.3681 48.8289 16.9811 48.8289C16.1888 48.8289 15.4028 49.1015 15.0772 49.4891C14.9587 49.6301 14.8209 49.9946 14.7707 50.2989C14.6489 51.039 14.2563 51.1079 13.8977 50.4522C13.7066 50.1026 13.6249 49.6203 13.6228 48.8289C13.6202 47.8594 13.6798 47.6023 14.0513 46.9782C14.5793 46.0913 15.5666 45.4403 16.7493 45.1992C17.2591 45.0951 17.6351 44.6655 17.6662 44.1509L17.6823 43.8857C17.8001 41.9399 18.1611 41.4889 21.0699 39.6538C21.5283 39.3646 21.3315 38.6626 20.7882 38.6486L19.6739 38.6199C17.0368 38.552 16.7173 38.5153 16.3295 38.2349C15.5407 37.6647 15.2925 36.9303 15.2925 35.1669C15.2925 33.2315 15.4043 32.7636 15.8656 32.768C16.0968 32.7703 16.2775 32.9245 16.4329 33.2523C16.5584 33.5168 16.9005 33.8701 17.1933 34.0372C17.6998 34.3265 18.0557 34.3451 24.5682 34.4222C30.9229 34.4974 31.4761 34.525 32.3233 34.8084C35.1164 35.7429 37.1458 38.1588 38.0434 41.618C39.0499 45.4974 38.535 50.509 36.6913 54.7744L36.6579 54.8516C36.4111 55.4225 35.978 55.895 35.4278 56.1934L31.8384 58.1403L28.165 60.1328C27.6919 60.3894 27.1162 60.3754 26.6564 60.096C23.134 57.9562 18.3037 58.2048 14.9591 60.698C14.4356 61.0882 14.006 61.2899 13.6985 61.2899C13.2373 61.2899 13.2344 61.2848 13.4524 60.877ZM32.3838 55.7592C32.6533 54.9467 33.04 53.4773 33.2431 52.4937C33.6032 50.7501 33.9114 47.4777 33.7157 47.4777C33.6618 47.4777 32.2145 48.1695 30.4996 49.0149L28.9348 49.7863C27.9831 50.2555 27.3814 51.2174 27.3814 52.2701V52.8945V54.5697C27.3814 54.9655 27.6444 55.314 28.0276 55.4262C28.7782 55.6457 30.629 56.5372 31.1823 56.9457C31.3918 57.1003 31.6374 57.2289 31.7284 57.2316C31.8194 57.2344 32.1144 56.5716 32.3838 55.7592ZM26.317 46.9148C26.3169 42.4029 26.2584 38.9202 26.1829 38.9202C25.9778 38.9202 25.2721 39.8926 24.9009 40.6867C24.5858 41.361 24.5648 41.6584 24.4909 46.5019C24.4128 51.6056 24.4127 51.6064 24.0194 52.432C23.8029 52.8862 23.3418 53.6105 22.9946 54.0416C22.6474 54.4726 22.3634 54.8442 22.3636 54.8674C22.3638 54.8904 23.2533 54.9091 24.3405 54.9091C25.4321 54.9091 26.317 54.033 26.317 52.9523V46.9148ZM30.6507 47.8695L32.8416 46.7495C33.3613 46.484 33.6808 45.9468 33.6635 45.3681C33.6071 43.484 33.874 43.4939 30.4175 45.2469L28.5692 46.1842C27.84 46.5541 27.3814 47.2969 27.3814 48.1081C27.3814 48.8349 27.4327 49.4283 27.4954 49.4268C27.5582 49.4251 28.9781 48.7246 30.6507 47.8695ZM33.0728 42.4809C32.6609 41.1649 31.4024 39.7161 30.1723 39.1416C29.6974 38.9198 28.9363 38.7199 28.3665 38.6673C27.8378 38.6186 27.3814 39.0304 27.3814 39.556V42.1271V42.4711C27.3814 43.9449 28.9473 44.9037 30.2792 44.2456C32.9496 42.9259 33.1688 42.7876 33.0728 42.4809ZM55.431 58.6563C54.0206 57.6276 52.8233 56.7859 52.7701 56.7859C52.717 56.7859 52.3533 57.0321 51.9624 57.3329C51.2716 57.864 51.2422 57.8721 50.9491 57.6099C50.7826 57.4614 50.6466 57.2988 50.6466 57.2486C50.6466 57.1984 51.023 56.8671 51.4832 56.5123C52.0108 56.1055 52.3192 55.4803 52.3192 54.818V51.258V48.3344C52.3192 47.2985 52.9021 46.3488 53.8309 45.8717L56.5104 44.4949C58.8153 43.3104 60.7279 42.3677 60.7603 42.3999C60.7931 42.4321 61.6071 43.6382 62.569 45.0801C63.6942 46.7661 64.266 47.7533 64.1714 47.8466C64.0905 47.9263 62.3661 49.0112 60.3389 50.2573L57.2049 52.1838C56.8583 52.3969 56.6354 52.7614 56.606 53.1642C56.5783 53.5368 56.6418 53.9043 56.7566 54.0413C56.8656 54.171 57.8512 54.8693 58.9467 55.5932L59.2491 55.7931C60.257 56.459 61.5828 56.4084 62.5356 55.6675L62.8728 55.4055C63.9365 54.5784 64.8278 53.9257 64.8532 53.9551C65.0717 54.2078 65.2479 54.7394 65.1446 54.8345C64.891 55.0685 58.322 60.3276 58.1607 60.4258C58.0697 60.4813 56.8412 59.6849 55.431 58.6563ZM60.2804 49.4236C60.4201 49.2994 57.5251 45.0757 57.3001 45.0757C57.2259 45.0757 57.0331 45.1455 56.8713 45.2311C56.5953 45.3768 56.5772 45.5747 56.5772 48.4338C56.5772 50.1099 56.6161 51.5197 56.6638 51.5667C56.737 51.639 59.8914 49.7697 60.2804 49.4236ZM44.7924 59.6853C44.3742 59.316 43.6074 58.6421 43.0883 58.1876L42.6519 57.8055C42.357 57.5472 41.9187 57.5312 41.6052 57.7672C41.1629 58.1003 41.0252 58.1398 40.8384 57.9867C40.4566 57.6738 40.5816 57.4899 41.6816 56.7458C42.3435 56.298 42.7394 55.5554 42.7394 54.7617V51.4398V47.7726C42.7394 47.174 42.5389 46.5925 42.1693 46.119C41.8557 45.7173 41.5464 45.3858 41.4819 45.3823C41.4176 45.3789 41.0999 45.5411 40.7759 45.743C40.193 46.1062 40.1837 46.107 39.9181 45.8172C39.7704 45.6561 39.6776 45.4978 39.7121 45.4653C40.117 45.0832 44.3376 42.4027 44.4378 42.4639C44.5124 42.5095 45.1529 43.2298 45.8613 44.0647L46.4927 44.8088C46.9167 45.3087 47.1494 45.9406 47.1494 46.5935V50.8536V55.3324C47.1494 55.8388 47.3559 56.3236 47.7225 56.677C48.057 56.9994 48.5734 57.0476 48.9627 56.7925L48.977 56.7831C49.7811 56.2564 49.8082 56.2529 50.2764 56.6165C50.4559 56.7561 50.4482 57.0281 50.2603 57.1572L48.2475 58.5429C46.9328 59.4479 45.7884 60.2264 45.7047 60.2725C45.6212 60.3187 45.2105 60.0545 44.7924 59.6853ZM43.1522 39.365C42.4174 38.5403 41.7832 37.7806 41.7427 37.6767C41.6821 37.5207 44.1635 35.2113 44.7994 34.8318C44.9177 34.7613 45.5128 35.3155 46.4624 36.3802C47.2756 37.2922 47.917 38.0584 47.8873 38.0829C47.8578 38.1073 47.1227 38.7448 46.2533 39.4996C45.3841 40.2544 44.6315 40.8702 44.5807 40.8681C44.5299 40.8659 43.887 40.1897 43.1522 39.365Z" fill="white"/>
<path d="M13.312 94.4309C13.312 94.1715 14.5321 92.5917 15.3149 91.8379C16.4204 90.7732 17.5018 90.1118 18.9495 89.6146C20.6873 89.0179 23.1473 88.9751 25.1347 89.5071C25.3071 89.5533 25.4769 89.4247 25.4769 89.2477V79.7476C25.4769 73.9635 25.4201 69.8964 25.3389 69.8964C25.2634 69.8964 24.9881 70.2143 24.7277 70.6027C23.8528 71.9063 23.8043 72.2892 23.8014 77.9182C23.7977 83.4685 23.6933 84.6965 23.1329 85.7781C22.3161 87.3542 20.1623 88.7184 17.982 89.0413C17.2695 89.1468 17.2655 89.1449 17.2672 88.7174C17.2689 88.3948 17.3979 88.2054 17.7841 87.9584C18.1064 87.7524 18.4612 87.3027 18.7327 86.7573C19.153 85.9126 19.1664 85.8132 19.1664 83.5584V82.1355C19.1664 81.6428 18.7513 81.2495 18.254 81.2712C17.1098 81.3212 16.6542 81.6289 16.3532 82.5553C16.2041 83.0131 16.0383 83.2568 15.8756 83.2574C15.511 83.2586 15.1367 82.2011 15.1367 81.1704C15.1367 79.3659 16.3605 77.9657 18.2918 77.5611C18.8312 77.4482 19.2262 76.9898 19.2543 76.4447L19.2733 76.0726C19.3746 74.0999 19.7465 73.5456 22.1313 71.8146C22.7586 71.3593 23.7759 70.4712 24.3922 69.8411C25.2788 68.9341 25.6036 68.6954 25.9508 68.6954C26.1928 68.6954 26.3893 68.8897 26.3893 69.1295V72.9741V74.8441C26.3893 76.1744 27.4784 77.2529 28.8222 77.2529C30.166 77.2529 31.2552 76.1744 31.2552 74.8441V74.0531V71.4568C31.2552 71.0714 31.096 70.7028 30.8143 70.4365C30.3495 69.9967 30.0391 70.029 29.5895 70.5638C29.2944 70.9145 29.1264 70.8462 29.1264 70.376C29.1264 70.0196 29.399 69.7364 30.8989 68.5369C31.8738 67.757 32.7928 67.0342 32.9408 66.9305C33.1751 66.7663 33.3792 66.8797 34.5192 67.8073L35.2979 68.4409C35.6087 68.6939 36.0544 68.7023 36.3746 68.461L36.5571 68.3238C36.7583 68.1722 37.0457 68.2108 37.1991 68.4099C37.4765 68.7702 37.4762 68.7708 36.7987 69.3451C36.3686 69.7098 36.121 70.2425 36.121 70.8032V79.3073V87.9482C36.121 88.4316 36.2864 88.9008 36.5902 89.2794C36.8481 89.6009 37.1165 89.864 37.1867 89.864C37.2569 89.864 37.5293 89.6852 37.7926 89.4667C38.2204 89.1111 38.295 89.0934 38.5018 89.2976C38.7087 89.502 38.5195 89.7055 36.7039 91.2338C33.8976 93.5954 34.2157 93.3954 33.7803 93.0695C33.5757 92.9166 32.7958 92.2346 32.0468 91.554L31.0703 90.6665C30.8481 90.4646 30.5112 90.4518 30.274 90.636C29.9133 90.9158 29.8352 90.9283 29.6406 90.7365C29.4465 90.5447 29.5327 90.4294 30.3371 89.8055C30.9166 89.356 31.2552 88.6675 31.2552 87.9388V85.2V83.7153C31.2552 82.385 30.166 81.3065 28.8222 81.3065C27.4784 81.3065 26.3893 82.385 26.3893 83.7153V85.6528C26.3893 89.6332 26.4113 90.0121 26.6553 90.1537C26.8855 90.2875 26.6871 90.5273 25.1752 91.9398L23.9895 93.0477C23.6543 93.3607 23.155 93.4277 22.748 93.214C21.5512 92.5857 20.5439 92.3767 19.0303 92.4423C17.8621 92.493 17.4807 92.5786 16.5897 92.9905C16.0092 93.2588 15.245 93.7124 14.8914 93.9984C14.4673 94.3415 14.09 94.5181 13.7806 94.5181C13.5229 94.5181 13.312 94.4788 13.312 94.4309ZM44.707 91.7343C43.2968 90.7056 42.099 89.864 42.0462 89.864C41.9927 89.864 41.6295 90.1101 41.2381 90.411C40.5476 90.942 40.5183 90.9501 40.2249 90.688C40.0588 90.5394 39.9228 90.3769 39.9228 90.3266C39.9228 90.2764 40.299 89.9452 40.7589 89.5904C41.287 89.1835 41.5954 88.5583 41.5954 87.8961V84.336V81.4125C41.5954 80.3765 42.1783 79.4269 43.1069 78.9497L45.7861 77.5729C48.0911 76.3884 50.0034 75.4457 50.036 75.4779C50.0685 75.5102 50.8833 76.7162 51.8444 78.1581C52.9703 79.8441 53.5421 80.8314 53.4475 80.9247C53.3663 81.0043 51.6419 82.0893 49.6147 83.3354L46.4806 85.2618C46.1341 85.4749 45.9115 85.8393 45.8818 86.2423C45.8543 86.6148 45.9175 86.9823 46.0328 87.1194C46.1418 87.2491 47.1273 87.9474 48.2224 88.6712L48.5255 88.8711C49.5324 89.5371 50.8588 89.4864 51.812 88.7457L52.1492 88.4835C53.2132 87.6564 54.1042 87.0037 54.1296 87.0331C54.3472 87.2859 54.5236 87.8174 54.421 87.9125C54.1677 88.1465 47.5978 93.4057 47.4364 93.5039C47.3455 93.5594 46.1174 92.7629 44.707 91.7343ZM49.5569 82.5016C49.6959 82.3774 46.8008 78.1537 46.5758 78.1537C46.502 78.1537 46.3089 78.2236 46.1471 78.3092C45.8714 78.4549 45.853 78.6527 45.853 81.5118C45.853 83.1879 45.8921 84.5978 45.9395 84.6448C46.0127 84.717 49.1672 82.8477 49.5569 82.5016ZM60.1478 92.7822C59.686 92.4122 58.8166 91.734 58.2135 91.2753L57.6534 90.8491C57.3369 90.6081 56.8964 90.6069 56.5779 90.8461C56.1371 91.1786 55.9997 91.2178 55.8129 91.0647C55.431 90.7519 55.555 90.568 56.6564 89.8238C57.3175 89.376 57.7138 88.6335 57.7138 87.8397V84.5179V80.8509C57.7138 80.2523 57.5131 79.6706 57.143 79.1971C56.8303 78.7954 56.5211 78.4639 56.4566 78.4603C56.3921 78.4569 56.0746 78.6191 55.7505 78.8211C55.162 79.1879 55.1609 79.1879 54.8852 78.887C54.7114 78.6986 54.6656 78.547 54.7639 78.4823C54.8478 78.4254 55.9118 77.7156 57.1263 76.9049L58.0281 76.3025C58.7849 75.798 59.7976 75.9017 60.4325 76.5487C61.0367 77.1635 61.6173 77.7831 61.7238 77.9258C61.8937 78.158 62.0412 78.0434 63.1226 76.8303C63.7851 76.0851 64.4107 75.4699 64.5121 75.4633C64.6125 75.4567 64.9473 75.6201 65.2545 75.8266C65.6047 76.0607 66.0287 76.202 66.3809 76.202C66.7332 76.202 67.1581 76.0607 67.5073 75.8266C68.176 75.3788 68.9675 75.3175 68.9645 75.714C68.9593 76.2259 68.5078 77.8709 68.2159 78.4353C67.8278 79.1872 66.9912 79.8976 66.2314 80.1225C65.3969 80.3696 64.1824 80.0905 63.1717 79.4188C62.7457 79.1358 62.3699 78.9043 62.3361 78.9043C62.3023 78.9043 62.2757 81.1933 62.2757 83.9907V88.218C62.2757 88.7617 62.5225 89.2767 62.9474 89.6207C63.3161 89.9197 63.6755 90.164 63.7462 90.1637C63.8148 90.1634 64.2827 89.8938 64.7845 89.5643L65.3385 89.2005C65.5402 89.0679 65.8126 89.1122 65.9601 89.302C66.1044 89.4872 66.2232 89.6726 66.2232 89.7139C66.2243 89.7847 61.266 93.3565 61.0735 93.4234C61.0233 93.4407 60.6076 93.1522 60.1478 92.7822ZM89.766 91.4623L87.8993 89.9205C87.6269 89.6965 87.6289 89.2831 87.9023 89.0612C88.2361 88.7907 88.4307 88.3859 88.4307 87.9585V84.0763C88.4307 79.1672 88.3928 78.8979 87.6474 78.5177C87.1016 78.2391 86.9326 78.2474 86.2619 78.586C85.7827 78.8265 85.6741 78.837 85.5236 78.6575C85.4253 78.5415 85.372 78.4251 85.4048 78.3986C85.4386 78.3721 86.4472 77.7265 87.6484 76.9638C90.1818 75.3555 90.1787 75.3558 91.4003 76.5622C92.6393 77.7857 92.6885 78.0506 92.6885 83.5611V86.9835C92.6885 87.7373 92.9977 88.4588 93.5466 88.9819L93.7371 89.1638C94.3146 89.714 94.8389 90.1642 94.9024 90.1642C94.9649 90.1642 95.3827 89.8918 95.8291 89.5588C96.3411 89.1777 96.6422 88.5806 96.6422 87.9467V84.5437V81.3598C96.6422 80.5805 96.3032 79.8389 95.7124 79.3241C95.2157 78.8911 95.2065 78.1274 95.6929 77.6829L96.3769 77.0578C97.2525 76.2568 98.0297 75.6026 98.1044 75.604C98.1782 75.6057 98.7035 76.0108 99.2738 76.5049C99.8422 76.9988 100.38 77.403 100.466 77.403C100.553 77.403 100.831 77.2569 101.085 77.0784C101.421 76.8423 101.613 76.794 101.785 76.9015C102.217 77.1709 102.137 77.3625 101.351 77.9319C100.862 78.2862 100.575 78.8516 100.58 79.4511L100.621 83.9174C100.669 89.0798 100.686 89.3671 100.99 89.939C101.165 90.2694 101.415 90.5602 101.545 90.5853C101.675 90.6105 102.036 90.4105 102.348 90.1409L102.565 89.952C102.755 89.7876 103.044 89.8117 103.204 90.0054C103.364 90.2003 103.474 90.417 103.451 90.4869C103.373 90.7208 99.4582 93.3126 99.1807 93.3148C98.3881 93.3211 97.2166 92.2062 96.9371 91.18C96.5869 89.8978 96.7589 89.8637 94.4365 91.6779C93.266 92.5927 92.2728 93.3625 92.2308 93.3887C92.1908 93.4148 91.0798 92.5479 89.766 91.4623ZM73.8039 91.6415C72.5239 90.7288 71.3883 89.9477 71.2808 89.9057C71.1753 89.8636 70.7667 90.0762 70.3745 90.378L70.009 90.6589C69.8175 90.8071 69.54 90.7731 69.3905 90.5831C69.1211 90.2416 69.1263 90.2338 70.0346 89.4136C70.6172 88.8876 70.95 88.1426 70.95 87.3616L70.9469 84.1494L70.9449 81.322C70.9439 80.3259 71.4825 79.4058 72.356 78.9113L74.7716 77.5436C76.8779 76.3516 78.6976 75.3763 78.8164 75.3763C78.9341 75.3763 80.1148 76.1869 81.4399 77.1778L82.7383 78.1486C83.4397 78.672 83.8514 79.4896 83.8534 80.3584L83.8596 83.8039L83.8667 88.2123C83.8678 88.4718 83.7357 88.7141 83.5165 88.8562C83.323 88.9814 81.5822 90.0327 79.6489 91.1923L77.7187 92.3501C76.7571 92.9266 75.5406 92.8789 74.6292 92.2292L73.8039 91.6415ZM79.61 85.6086V82.0903C79.61 81.1611 79.141 80.2935 78.3597 79.7792L77.6357 79.3031C76.5482 78.5883 75.5897 78.0036 75.5058 78.0036C75.4065 78.0036 75.3532 79.7333 75.3532 82.9552V86.4311C75.3532 87.3536 75.8161 88.2158 76.5892 88.7316L77.3674 89.2516C78.4754 89.9913 79.4338 90.6005 79.4963 90.6056C79.5588 90.6107 79.61 88.3619 79.61 85.6086ZM107.32 91.7215L106.071 90.6562C105.707 90.3447 105.181 90.2973 104.766 90.5383C104.098 90.9245 104.061 90.9297 103.857 90.6652C103.742 90.5135 103.647 90.3556 103.649 90.3143C103.651 90.2731 104.162 89.9202 104.785 89.5302C105.491 89.0888 105.918 88.3203 105.918 87.4941V84.1514V80.1038C105.918 79.7056 105.758 79.3238 105.472 79.043C105.24 78.8121 104.888 78.6312 104.817 78.5956C104.809 78.5913 104.784 78.5802 104.775 78.5762C104.442 78.4287 104.346 78.1334 104.581 77.8572C106.163 76.7308 108.63 74.8193 110.29 72.4487C110.627 72.4487 110.631 72.2176 110.631 74.4004C110.631 75.4783 111.52 76.3521 112.608 76.3521C113.985 76.3521 114.585 76.3274 114.585 76.3521C114.585 76.446 114.293 77.0528 113.939 77.4917C113.53 77.9964 112.913 78.2916 112.259 78.295L111.961 78.2967C111.225 78.3006 110.631 78.8924 110.631 79.6211V83.6756V87.8874C110.631 88.6297 110.931 89.3411 111.466 89.8625L111.532 89.9278L111.994 90.3794C112.253 90.632 112.651 90.6807 112.964 90.4982C113.488 90.193 113.499 90.1927 113.761 90.4776C113.906 90.6365 113.997 90.7927 113.963 90.8246C113.928 90.8565 112.838 91.4282 111.54 92.0951L110.862 92.4428C109.847 92.9651 108.611 92.8222 107.742 92.0822L107.32 91.7215ZM13.8063 71.5986C13.5141 71.4823 13.5747 71.1696 14.081 70.1798C14.7293 68.9114 15.6039 68.0319 16.7886 67.4567C17.7808 66.9752 17.8166 66.9697 19.5444 67.0342C23.3645 67.177 24.2859 67.1364 25.0479 66.7916C25.6507 66.5188 25.8011 66.4999 26.0334 66.6675C26.2844 66.8488 26.1941 66.9765 24.9416 68.2108C22.9141 70.2087 21.596 70.7348 19.2423 70.486C16.5299 70.1991 15.384 70.3982 14.5398 71.3029C14.1586 71.7114 14.1245 71.7253 13.8063 71.5986Z" fill="white"/>
</svg>
