<svg width="128" height="128" viewBox="0 0 128 128" fill="none" xmlns="http://www.w3.org/2000/svg">
<rect width="128" height="128" fill="#1447A0"/>
<mask id="path-2-inside-1_76_8" fill="white">
<path d="M13 77.9127C13 77.653 14.2289 76.0708 15.0172 75.3159C16.1307 74.2495 17.2199 73.5871 18.678 73.0892C20.4282 72.4916 22.9059 72.4488 24.9076 72.9815C25.0813 73.0278 25.2523 72.899 25.2523 72.7218V63.2074C25.2523 57.4146 25.195 53.3414 25.1133 53.3414C25.0372 53.3414 24.7599 53.6597 24.4976 54.0488C23.6164 55.3543 23.5677 55.7378 23.5647 61.3752C23.561 66.9338 23.4559 68.1637 22.8914 69.2469C22.0688 70.8253 19.8994 72.1917 17.7035 72.515C16.9859 72.6207 16.9819 72.6188 16.9836 72.1906C16.9853 71.8676 17.1152 71.6779 17.5042 71.4305C17.8288 71.2242 18.1862 70.7739 18.4596 70.2276C18.883 69.3816 18.8965 69.2821 18.8965 67.0239V65.5989C18.8965 65.1054 18.4783 64.7115 17.9775 64.7333C16.8251 64.7833 16.3662 65.0915 16.063 66.0193C15.9129 66.4778 15.7459 66.7219 15.582 66.7225C15.2147 66.7236 14.8378 65.6645 14.8378 64.6323C14.8378 62.8251 16.0703 61.4228 18.0156 61.0176C18.5588 60.9045 18.9567 60.4455 18.985 59.8995L19.0041 59.5269C19.1061 57.5512 19.4807 56.9961 21.8826 55.2625C22.5145 54.8065 23.539 53.9171 24.1598 53.286C25.0527 52.3777 25.3799 52.1386 25.7296 52.1386C25.9733 52.1386 26.1712 52.3332 26.1712 52.5734V56.4237V58.2965C26.1712 59.6289 27.2682 60.7089 28.6216 60.7089C29.9751 60.7089 31.072 59.6289 31.072 58.2965V57.5044V54.9042C31.072 54.5182 30.9117 54.149 30.628 53.8823C30.1599 53.4419 29.8472 53.4742 29.3944 54.0098C29.0972 54.361 28.9279 54.2926 28.9279 53.8217C28.9279 53.4648 29.2026 53.1812 30.7132 51.9798C31.695 51.1988 32.6207 50.4749 32.7697 50.371C33.0057 50.2066 33.2113 50.3202 34.3594 51.2492L35.1438 51.8838C35.4568 52.1371 35.9058 52.1455 36.2283 51.9039L36.4121 51.7665C36.6147 51.6146 36.9041 51.6532 37.0586 51.8527C37.338 52.2135 37.3377 52.2141 36.6553 52.7893C36.2222 53.1546 35.9728 53.6881 35.9728 54.2496V62.7664V71.4203C35.9728 71.9044 36.1394 72.3743 36.4454 72.7535C36.7052 73.0755 36.9755 73.3389 37.0461 73.3389C37.1169 73.3389 37.3912 73.1599 37.6564 72.941C38.0873 72.585 38.1624 72.5672 38.3707 72.7717C38.579 72.9764 38.3885 73.1802 36.5598 74.7108C33.7334 77.076 34.0539 76.8757 33.6153 76.5493C33.4093 76.3962 32.6237 75.7132 31.8693 75.0315L30.8858 74.1427C30.662 73.9404 30.3227 73.9276 30.0838 74.1121C29.7205 74.3924 29.6418 74.4049 29.4459 74.2128C29.2503 74.0207 29.3372 73.9052 30.1474 73.2804C30.731 72.8302 31.072 72.1407 31.072 71.4108V68.6679V67.181C31.072 65.8487 29.9751 64.7686 28.6216 64.7686C27.2682 64.7686 26.1712 65.8487 26.1712 67.181V69.1214C26.1712 73.1078 26.1934 73.4873 26.4392 73.6291C26.671 73.7631 26.4711 74.0033 24.9483 75.4179L23.7541 76.5274C23.4166 76.8409 22.9137 76.908 22.5037 76.694C21.2984 76.0647 20.2838 75.8554 18.7594 75.9211C17.5827 75.9719 17.1986 76.0576 16.3013 76.4701C15.7166 76.7389 14.9469 77.1931 14.5908 77.4795C14.1636 77.8232 13.7836 78 13.4719 78C13.2124 78 13 77.9607 13 77.9127ZM44.6205 75.2121C43.2001 74.1818 41.9937 73.3389 41.9405 73.3389C41.8867 73.3389 41.5209 73.5855 41.1267 73.8868C40.4312 74.4186 40.4016 74.4267 40.1062 74.1642C39.9389 74.0154 39.8019 73.8526 39.8019 73.8023C39.8019 73.752 40.1808 73.4203 40.644 73.0649C41.1759 72.6575 41.4865 72.0313 41.4865 71.3681V67.8027V64.8748C41.4865 63.8372 42.0736 62.8862 43.0089 62.4083L45.7073 61.0294C48.0288 59.8432 49.9549 58.899 49.9878 58.9313C50.0205 58.9636 50.8411 60.1715 51.8091 61.6155C52.9431 63.3041 53.519 64.2928 53.4237 64.3862C53.3419 64.466 51.6051 65.5526 49.5634 66.8005L46.4068 68.7299C46.0578 68.9433 45.8336 69.3083 45.8037 69.7118C45.776 70.0849 45.8397 70.453 45.9558 70.5902C46.0655 70.7201 47.0581 71.4194 48.1611 72.1444L48.4664 72.3446C49.4805 73.0116 50.8165 72.9608 51.7764 72.2189L52.1161 71.9564C53.1878 71.1281 54.0851 70.4744 54.1107 70.5038C54.3299 70.7569 54.5076 71.2893 54.4042 71.3846C54.1491 71.6189 47.532 76.886 47.3695 76.9843C47.2779 77.0399 46.041 76.2422 44.6205 75.2121ZM49.5052 65.9655C49.6451 65.8411 46.7293 61.6111 46.5027 61.6111C46.4284 61.6111 46.2338 61.6811 46.0709 61.7668C45.7932 61.9127 45.7747 62.1109 45.7747 64.9743C45.7747 66.6529 45.8141 68.0648 45.8618 68.1119C45.9356 68.1843 49.1127 66.3122 49.5052 65.9655ZM60.1722 76.2615C59.707 75.891 58.8314 75.2118 58.2239 74.7523L57.6598 74.3255C57.3411 74.0842 56.8974 74.083 56.5766 74.3225C56.1327 74.6555 55.9943 74.6948 55.8061 74.5415C55.4215 74.2282 55.5464 74.044 56.6557 73.2987C57.3215 72.8503 57.7207 72.1067 57.7207 71.3117V67.9848V64.3124C57.7207 63.7128 57.5185 63.1302 57.1458 62.656C56.8308 62.2537 56.5194 61.9217 56.4545 61.9182C56.3895 61.9148 56.0697 62.0772 55.7432 62.2795C55.1505 62.6468 55.1495 62.6468 54.8717 62.3455C54.6967 62.1568 54.6506 62.005 54.7496 61.9402C54.8341 61.8832 55.9058 61.1724 57.129 60.3605L58.0373 59.7571C58.7994 59.2519 59.8195 59.3557 60.4589 60.0037C61.0674 60.6194 61.6522 61.24 61.7594 61.3828C61.9306 61.6154 62.0792 61.5007 63.1683 60.2857C63.8355 59.5394 64.4657 58.9233 64.5678 58.9166C64.6689 58.9101 65.0061 59.0737 65.3155 59.2805C65.6683 59.5149 66.0953 59.6564 66.45 59.6564C66.8048 59.6564 67.2328 59.5149 67.5845 59.2805C68.258 58.832 69.0552 58.7707 69.0521 59.1678C69.047 59.6804 68.5922 61.3279 68.2982 61.8931C67.9073 62.6462 67.0647 63.3576 66.2995 63.5828C65.4589 63.8303 64.2357 63.5508 63.2178 62.8781C62.7887 62.5947 62.4102 62.3628 62.3762 62.3628C62.3421 62.3628 62.3153 64.6552 62.3153 67.4569V71.6905C62.3153 72.235 62.5639 72.7508 62.9919 73.0953C63.3632 73.3947 63.7252 73.6394 63.7964 73.6391C63.8655 73.6388 64.3368 73.3688 64.8422 73.0388L65.4001 72.6745C65.6033 72.5417 65.8776 72.586 66.0262 72.7761C66.1716 72.9616 66.2912 73.1473 66.2912 73.1886C66.2922 73.2596 61.2984 76.8367 61.1045 76.9037C61.054 76.921 60.6353 76.6321 60.1722 76.2615ZM90.0031 74.9397L88.1229 73.3955C87.8486 73.1712 87.8506 72.7572 88.126 72.5349C88.4622 72.2641 88.6582 71.8587 88.6582 71.4306V67.5426C88.6582 62.6261 88.62 62.3564 87.8692 61.9757C87.3195 61.6966 87.1493 61.7049 86.4738 62.0441C85.9911 62.2849 85.8818 62.2955 85.7302 62.1157C85.6312 61.9995 85.5775 61.8829 85.6105 61.8563C85.6446 61.8299 86.6605 61.1833 87.8702 60.4194C90.4218 58.8087 90.4187 58.809 91.6491 60.0172C92.897 61.2425 92.9466 61.5078 92.9466 67.0266V70.4541C92.9466 71.2091 93.258 71.9317 93.8108 72.4555L94.0027 72.6377C94.5844 73.1887 95.1124 73.6396 95.1764 73.6396C95.2393 73.6396 95.6601 73.3668 96.1097 73.0333C96.6254 72.6516 96.9286 72.0536 96.9286 71.4188V68.0107V64.822C96.9286 64.0415 96.5872 63.2988 95.9922 62.7833C95.4919 62.3496 95.4826 61.5848 95.9725 61.1396L96.6615 60.5136C97.5433 59.7113 98.3261 59.0561 98.4014 59.0575C98.4757 59.0593 99.0047 59.465 99.5792 59.9598C100.152 60.4545 100.693 60.8593 100.78 60.8593C100.867 60.8593 101.148 60.7129 101.404 60.5342C101.742 60.2977 101.935 60.2494 102.108 60.357C102.543 60.6268 102.463 60.8187 101.671 61.389C101.179 61.7438 100.89 62.31 100.895 62.9105L100.936 67.3834C100.984 72.5536 101.001 72.8413 101.308 73.4141C101.484 73.7449 101.736 74.0362 101.867 74.0613C101.998 74.0866 102.361 73.8863 102.675 73.6162L102.894 73.4271C103.086 73.2624 103.377 73.2865 103.538 73.4806C103.698 73.6757 103.81 73.8928 103.786 73.9628C103.708 74.197 99.7648 76.7927 99.4853 76.7949C98.6871 76.8012 97.5072 75.6846 97.2256 74.657C96.8729 73.3728 97.0462 73.3386 94.7071 75.1556C93.5282 76.0718 92.5278 76.8427 92.4855 76.8689C92.4453 76.8951 91.3263 76.0269 90.0031 74.9397ZM73.9263 75.1192C72.6371 74.2051 71.4934 73.4228 71.3851 73.3807C71.2788 73.3385 70.8673 73.5514 70.4723 73.8538L70.1041 74.1351C69.9113 74.2835 69.6318 74.2494 69.4812 74.0592C69.2099 73.7172 69.2151 73.7094 70.1299 72.8879C70.7167 72.3611 71.0519 71.615 71.0519 70.8328L71.0488 67.6158L71.0468 64.7841C71.0458 63.7866 71.5882 62.865 72.468 62.3698L74.9009 61.0001C77.0224 59.8063 78.8552 58.8295 78.9748 58.8295C79.0934 58.8295 80.2826 59.6414 81.6171 60.6338L82.9249 61.606C83.6314 62.1301 84.046 62.949 84.048 63.8191L84.0542 67.2698L84.0614 71.6847C84.0625 71.9447 83.9294 72.1874 83.7087 72.3296C83.5138 72.455 81.7605 73.5079 79.8133 74.6693L77.8692 75.8288C76.9008 76.4061 75.6755 76.3584 74.7576 75.7077L73.9263 75.1192ZM79.7741 69.0772V65.5536C79.7741 64.623 79.3017 63.7541 78.5148 63.239L77.7856 62.7622C76.6903 62.0463 75.725 61.4608 75.6404 61.4608C75.5404 61.4608 75.4868 63.1931 75.4868 66.4197V69.9009C75.4868 70.8248 75.9529 71.6883 76.7316 72.2049L77.5154 72.7257C78.6314 73.4664 79.5967 74.0766 79.6596 74.0816C79.7225 74.0868 79.7741 71.8346 79.7741 69.0772ZM107.684 75.1993L106.425 74.1324C106.058 73.8204 105.529 73.7729 105.11 74.0143C104.438 74.4011 104.401 74.4062 104.196 74.1413C104.079 73.9894 103.984 73.8313 103.986 73.79C103.988 73.7486 104.503 73.3952 105.13 73.0046C105.841 72.5626 106.271 71.7929 106.271 70.9655V67.6178V63.5641C106.271 63.1653 106.11 62.783 105.822 62.5017C105.588 62.2705 105.234 62.0893 105.162 62.0536C105.154 62.0493 105.129 62.0382 105.12 62.0342C104.784 61.8865 104.687 61.5908 104.925 61.3141C106.518 60.186 109.003 58.2717 110.675 55.8975C111.014 55.8975 111.018 55.6661 111.018 57.8521C111.018 58.9317 111.913 59.8068 113.009 59.8068C114.396 59.8068 115 59.7821 115 59.8068C115 59.9008 114.706 60.5086 114.349 60.9481C113.938 61.4536 113.316 61.7493 112.658 61.7526L112.358 61.7543C111.616 61.7582 111.018 62.3509 111.018 63.0807V67.1413V71.3593C111.018 72.1029 111.32 72.8153 111.858 73.3375L111.926 73.4028L112.391 73.8551C112.652 74.1081 113.053 74.1569 113.367 73.9742C113.895 73.6684 113.907 73.6681 114.171 73.9534C114.316 74.1126 114.408 74.2691 114.374 74.301C114.339 74.333 113.24 74.9055 111.934 75.5734L111.251 75.9216C110.228 76.4447 108.983 76.3016 108.108 75.5605L107.684 75.1993ZM13.4978 55.0461C13.2036 54.9297 13.2645 54.6166 13.7745 53.6252C14.4275 52.3549 15.3084 51.4741 16.5015 50.8981C17.5009 50.4158 17.5369 50.4103 19.2771 50.475C23.1247 50.6179 24.0527 50.5772 24.8201 50.2319C25.4273 49.9588 25.5788 49.9398 25.8127 50.1076C26.0655 50.2893 25.9746 50.4172 24.7131 51.6533C22.671 53.6542 21.3434 54.1811 18.9729 53.9318C16.241 53.6446 15.0868 53.844 14.2366 54.75C13.8526 55.1592 13.8183 55.1731 13.4978 55.0461Z"/>
</mask>
<path d="M13 77.9127C13 77.653 14.2289 76.0708 15.0172 75.3159C16.1307 74.2495 17.2199 73.5871 18.678 73.0892C20.4282 72.4916 22.9059 72.4488 24.9076 72.9815C25.0813 73.0278 25.2523 72.899 25.2523 72.7218V63.2074C25.2523 57.4146 25.195 53.3414 25.1133 53.3414C25.0372 53.3414 24.7599 53.6597 24.4976 54.0488C23.6164 55.3543 23.5677 55.7378 23.5647 61.3752C23.561 66.9338 23.4559 68.1637 22.8914 69.2469C22.0688 70.8253 19.8994 72.1917 17.7035 72.515C16.9859 72.6207 16.9819 72.6188 16.9836 72.1906C16.9853 71.8676 17.1152 71.6779 17.5042 71.4305C17.8288 71.2242 18.1862 70.7739 18.4596 70.2276C18.883 69.3816 18.8965 69.2821 18.8965 67.0239V65.5989C18.8965 65.1054 18.4783 64.7115 17.9775 64.7333C16.8251 64.7833 16.3662 65.0915 16.063 66.0193C15.9129 66.4778 15.7459 66.7219 15.582 66.7225C15.2147 66.7236 14.8378 65.6645 14.8378 64.6323C14.8378 62.8251 16.0703 61.4228 18.0156 61.0176C18.5588 60.9045 18.9567 60.4455 18.985 59.8995L19.0041 59.5269C19.1061 57.5512 19.4807 56.9961 21.8826 55.2625C22.5145 54.8065 23.539 53.9171 24.1598 53.286C25.0527 52.3777 25.3799 52.1386 25.7296 52.1386C25.9733 52.1386 26.1712 52.3332 26.1712 52.5734V56.4237V58.2965C26.1712 59.6289 27.2682 60.7089 28.6216 60.7089C29.9751 60.7089 31.072 59.6289 31.072 58.2965V57.5044V54.9042C31.072 54.5182 30.9117 54.149 30.628 53.8823C30.1599 53.4419 29.8472 53.4742 29.3944 54.0098C29.0972 54.361 28.9279 54.2926 28.9279 53.8217C28.9279 53.4648 29.2026 53.1812 30.7132 51.9798C31.695 51.1988 32.6207 50.4749 32.7697 50.371C33.0057 50.2066 33.2113 50.3202 34.3594 51.2492L35.1438 51.8838C35.4568 52.1371 35.9058 52.1455 36.2283 51.9039L36.4121 51.7665C36.6147 51.6146 36.9041 51.6532 37.0586 51.8527C37.338 52.2135 37.3377 52.2141 36.6553 52.7893C36.2222 53.1546 35.9728 53.6881 35.9728 54.2496V62.7664V71.4203C35.9728 71.9044 36.1394 72.3743 36.4454 72.7535C36.7052 73.0755 36.9755 73.3389 37.0461 73.3389C37.1169 73.3389 37.3912 73.1599 37.6564 72.941C38.0873 72.585 38.1624 72.5672 38.3707 72.7717C38.579 72.9764 38.3885 73.1802 36.5598 74.7108C33.7334 77.076 34.0539 76.8757 33.6153 76.5493C33.4093 76.3962 32.6237 75.7132 31.8693 75.0315L30.8858 74.1427C30.662 73.9404 30.3227 73.9276 30.0838 74.1121C29.7205 74.3924 29.6418 74.4049 29.4459 74.2128C29.2503 74.0207 29.3372 73.9052 30.1474 73.2804C30.731 72.8302 31.072 72.1407 31.072 71.4108V68.6679V67.181C31.072 65.8487 29.9751 64.7686 28.6216 64.7686C27.2682 64.7686 26.1712 65.8487 26.1712 67.181V69.1214C26.1712 73.1078 26.1934 73.4873 26.4392 73.6291C26.671 73.7631 26.4711 74.0033 24.9483 75.4179L23.7541 76.5274C23.4166 76.8409 22.9137 76.908 22.5037 76.694C21.2984 76.0647 20.2838 75.8554 18.7594 75.9211C17.5827 75.9719 17.1986 76.0576 16.3013 76.4701C15.7166 76.7389 14.9469 77.1931 14.5908 77.4795C14.1636 77.8232 13.7836 78 13.4719 78C13.2124 78 13 77.9607 13 77.9127ZM44.6205 75.2121C43.2001 74.1818 41.9937 73.3389 41.9405 73.3389C41.8867 73.3389 41.5209 73.5855 41.1267 73.8868C40.4312 74.4186 40.4016 74.4267 40.1062 74.1642C39.9389 74.0154 39.8019 73.8526 39.8019 73.8023C39.8019 73.752 40.1808 73.4203 40.644 73.0649C41.1759 72.6575 41.4865 72.0313 41.4865 71.3681V67.8027V64.8748C41.4865 63.8372 42.0736 62.8862 43.0089 62.4083L45.7073 61.0294C48.0288 59.8432 49.9549 58.899 49.9878 58.9313C50.0205 58.9636 50.8411 60.1715 51.8091 61.6155C52.9431 63.3041 53.519 64.2928 53.4237 64.3862C53.3419 64.466 51.6051 65.5526 49.5634 66.8005L46.4068 68.7299C46.0578 68.9433 45.8336 69.3083 45.8037 69.7118C45.776 70.0849 45.8397 70.453 45.9558 70.5902C46.0655 70.7201 47.0581 71.4194 48.1611 72.1444L48.4664 72.3446C49.4805 73.0116 50.8165 72.9608 51.7764 72.2189L52.1161 71.9564C53.1878 71.1281 54.0851 70.4744 54.1107 70.5038C54.3299 70.7569 54.5076 71.2893 54.4042 71.3846C54.1491 71.6189 47.532 76.886 47.3695 76.9843C47.2779 77.0399 46.041 76.2422 44.6205 75.2121ZM49.5052 65.9655C49.6451 65.8411 46.7293 61.6111 46.5027 61.6111C46.4284 61.6111 46.2338 61.6811 46.0709 61.7668C45.7932 61.9127 45.7747 62.1109 45.7747 64.9743C45.7747 66.6529 45.8141 68.0648 45.8618 68.1119C45.9356 68.1843 49.1127 66.3122 49.5052 65.9655ZM60.1722 76.2615C59.707 75.891 58.8314 75.2118 58.2239 74.7523L57.6598 74.3255C57.3411 74.0842 56.8974 74.083 56.5766 74.3225C56.1327 74.6555 55.9943 74.6948 55.8061 74.5415C55.4215 74.2282 55.5464 74.044 56.6557 73.2987C57.3215 72.8503 57.7207 72.1067 57.7207 71.3117V67.9848V64.3124C57.7207 63.7128 57.5185 63.1302 57.1458 62.656C56.8308 62.2537 56.5194 61.9217 56.4545 61.9182C56.3895 61.9148 56.0697 62.0772 55.7432 62.2795C55.1505 62.6468 55.1495 62.6468 54.8717 62.3455C54.6967 62.1568 54.6506 62.005 54.7496 61.9402C54.8341 61.8832 55.9058 61.1724 57.129 60.3605L58.0373 59.7571C58.7994 59.2519 59.8195 59.3557 60.4589 60.0037C61.0674 60.6194 61.6522 61.24 61.7594 61.3828C61.9306 61.6154 62.0792 61.5007 63.1683 60.2857C63.8355 59.5394 64.4657 58.9233 64.5678 58.9166C64.6689 58.9101 65.0061 59.0737 65.3155 59.2805C65.6683 59.5149 66.0953 59.6564 66.45 59.6564C66.8048 59.6564 67.2328 59.5149 67.5845 59.2805C68.258 58.832 69.0552 58.7707 69.0521 59.1678C69.047 59.6804 68.5922 61.3279 68.2982 61.8931C67.9073 62.6462 67.0647 63.3576 66.2995 63.5828C65.4589 63.8303 64.2357 63.5508 63.2178 62.8781C62.7887 62.5947 62.4102 62.3628 62.3762 62.3628C62.3421 62.3628 62.3153 64.6552 62.3153 67.4569V71.6905C62.3153 72.235 62.5639 72.7508 62.9919 73.0953C63.3632 73.3947 63.7252 73.6394 63.7964 73.6391C63.8655 73.6388 64.3368 73.3688 64.8422 73.0388L65.4001 72.6745C65.6033 72.5417 65.8776 72.586 66.0262 72.7761C66.1716 72.9616 66.2912 73.1473 66.2912 73.1886C66.2922 73.2596 61.2984 76.8367 61.1045 76.9037C61.054 76.921 60.6353 76.6321 60.1722 76.2615ZM90.0031 74.9397L88.1229 73.3955C87.8486 73.1712 87.8506 72.7572 88.126 72.5349C88.4622 72.2641 88.6582 71.8587 88.6582 71.4306V67.5426C88.6582 62.6261 88.62 62.3564 87.8692 61.9757C87.3195 61.6966 87.1493 61.7049 86.4738 62.0441C85.9911 62.2849 85.8818 62.2955 85.7302 62.1157C85.6312 61.9995 85.5775 61.8829 85.6105 61.8563C85.6446 61.8299 86.6605 61.1833 87.8702 60.4194C90.4218 58.8087 90.4187 58.809 91.6491 60.0172C92.897 61.2425 92.9466 61.5078 92.9466 67.0266V70.4541C92.9466 71.2091 93.258 71.9317 93.8108 72.4555L94.0027 72.6377C94.5844 73.1887 95.1124 73.6396 95.1764 73.6396C95.2393 73.6396 95.6601 73.3668 96.1097 73.0333C96.6254 72.6516 96.9286 72.0536 96.9286 71.4188V68.0107V64.822C96.9286 64.0415 96.5872 63.2988 95.9922 62.7833C95.4919 62.3496 95.4826 61.5848 95.9725 61.1396L96.6615 60.5136C97.5433 59.7113 98.3261 59.0561 98.4014 59.0575C98.4757 59.0593 99.0047 59.465 99.5792 59.9598C100.152 60.4545 100.693 60.8593 100.78 60.8593C100.867 60.8593 101.148 60.7129 101.404 60.5342C101.742 60.2977 101.935 60.2494 102.108 60.357C102.543 60.6268 102.463 60.8187 101.671 61.389C101.179 61.7438 100.89 62.31 100.895 62.9105L100.936 67.3834C100.984 72.5536 101.001 72.8413 101.308 73.4141C101.484 73.7449 101.736 74.0362 101.867 74.0613C101.998 74.0866 102.361 73.8863 102.675 73.6162L102.894 73.4271C103.086 73.2624 103.377 73.2865 103.538 73.4806C103.698 73.6757 103.81 73.8928 103.786 73.9628C103.708 74.197 99.7648 76.7927 99.4853 76.7949C98.6871 76.8012 97.5072 75.6846 97.2256 74.657C96.8729 73.3728 97.0462 73.3386 94.7071 75.1556C93.5282 76.0718 92.5278 76.8427 92.4855 76.8689C92.4453 76.8951 91.3263 76.0269 90.0031 74.9397ZM73.9263 75.1192C72.6371 74.2051 71.4934 73.4228 71.3851 73.3807C71.2788 73.3385 70.8673 73.5514 70.4723 73.8538L70.1041 74.1351C69.9113 74.2835 69.6318 74.2494 69.4812 74.0592C69.2099 73.7172 69.2151 73.7094 70.1299 72.8879C70.7167 72.3611 71.0519 71.615 71.0519 70.8328L71.0488 67.6158L71.0468 64.7841C71.0458 63.7866 71.5882 62.865 72.468 62.3698L74.9009 61.0001C77.0224 59.8063 78.8552 58.8295 78.9748 58.8295C79.0934 58.8295 80.2826 59.6414 81.6171 60.6338L82.9249 61.606C83.6314 62.1301 84.046 62.949 84.048 63.8191L84.0542 67.2698L84.0614 71.6847C84.0625 71.9447 83.9294 72.1874 83.7087 72.3296C83.5138 72.455 81.7605 73.5079 79.8133 74.6693L77.8692 75.8288C76.9008 76.4061 75.6755 76.3584 74.7576 75.7077L73.9263 75.1192ZM79.7741 69.0772V65.5536C79.7741 64.623 79.3017 63.7541 78.5148 63.239L77.7856 62.7622C76.6903 62.0463 75.725 61.4608 75.6404 61.4608C75.5404 61.4608 75.4868 63.1931 75.4868 66.4197V69.9009C75.4868 70.8248 75.9529 71.6883 76.7316 72.2049L77.5154 72.7257C78.6314 73.4664 79.5967 74.0766 79.6596 74.0816C79.7225 74.0868 79.7741 71.8346 79.7741 69.0772ZM107.684 75.1993L106.425 74.1324C106.058 73.8204 105.529 73.7729 105.11 74.0143C104.438 74.4011 104.401 74.4062 104.196 74.1413C104.079 73.9894 103.984 73.8313 103.986 73.79C103.988 73.7486 104.503 73.3952 105.13 73.0046C105.841 72.5626 106.271 71.7929 106.271 70.9655V67.6178V63.5641C106.271 63.1653 106.11 62.783 105.822 62.5017C105.588 62.2705 105.234 62.0893 105.162 62.0536C105.154 62.0493 105.129 62.0382 105.12 62.0342C104.784 61.8865 104.687 61.5908 104.925 61.3141C106.518 60.186 109.003 58.2717 110.675 55.8975C111.014 55.8975 111.018 55.6661 111.018 57.8521C111.018 58.9317 111.913 59.8068 113.009 59.8068C114.396 59.8068 115 59.7821 115 59.8068C115 59.9008 114.706 60.5086 114.349 60.9481C113.938 61.4536 113.316 61.7493 112.658 61.7526L112.358 61.7543C111.616 61.7582 111.018 62.3509 111.018 63.0807V67.1413V71.3593C111.018 72.1029 111.32 72.8153 111.858 73.3375L111.926 73.4028L112.391 73.8551C112.652 74.1081 113.053 74.1569 113.367 73.9742C113.895 73.6684 113.907 73.6681 114.171 73.9534C114.316 74.1126 114.408 74.2691 114.374 74.301C114.339 74.333 113.24 74.9055 111.934 75.5734L111.251 75.9216C110.228 76.4447 108.983 76.3016 108.108 75.5605L107.684 75.1993ZM13.4978 55.0461C13.2036 54.9297 13.2645 54.6166 13.7745 53.6252C14.4275 52.3549 15.3084 51.4741 16.5015 50.8981C17.5009 50.4158 17.5369 50.4103 19.2771 50.475C23.1247 50.6179 24.0527 50.5772 24.8201 50.2319C25.4273 49.9588 25.5788 49.9398 25.8127 50.1076C26.0655 50.2893 25.9746 50.4172 24.7131 51.6533C22.671 53.6542 21.3434 54.1811 18.9729 53.9318C16.241 53.6446 15.0868 53.844 14.2366 54.75C13.8526 55.1592 13.8183 55.1731 13.4978 55.0461Z" stroke="white" stroke-width="2" mask="url(#path-2-inside-1_76_8)"/>
</svg>
